<mxfile host="app.diagrams.net" agent="Mozilla/5.0 (Windows NT 10.0; Win64; x64) AppleWebKit/537.36 (KHTML, like Gecko) Chrome/132.0.0.0 Safari/537.36 OPR/117.0.0.0" version="24.8.3">
  <diagram name="Página-1" id="1beGm7noSuUbEQJR2CBq">
    <mxGraphModel dx="1263" dy="716" grid="1" gridSize="10" guides="1" tooltips="1" connect="1" arrows="1" fold="1" page="1" pageScale="1" pageWidth="827" pageHeight="1169" math="0" shadow="0">
      <root>
        <mxCell id="0" />
        <mxCell id="1" parent="0" />
        <mxCell id="0i-SYVo2WycHVPdsH7gR-14" value="" style="shape=folder;fontStyle=1;spacingTop=10;tabWidth=40;tabHeight=14;tabPosition=left;html=1;whiteSpace=wrap;" vertex="1" parent="1">
          <mxGeometry x="230" y="476" width="500" height="175" as="geometry" />
        </mxCell>
        <mxCell id="0i-SYVo2WycHVPdsH7gR-3" value="" style="shape=folder;fontStyle=1;spacingTop=10;tabWidth=40;tabHeight=14;tabPosition=left;html=1;whiteSpace=wrap;" vertex="1" parent="1">
          <mxGeometry x="140" y="180" width="560" height="260" as="geometry" />
        </mxCell>
        <mxCell id="0i-SYVo2WycHVPdsH7gR-4" value="" style="shape=folder;fontStyle=1;spacingTop=10;tabWidth=40;tabHeight=14;tabPosition=left;html=1;whiteSpace=wrap;" vertex="1" parent="1">
          <mxGeometry x="450" y="50" width="180" height="110" as="geometry" />
        </mxCell>
        <mxCell id="0i-SYVo2WycHVPdsH7gR-30" style="edgeStyle=orthogonalEdgeStyle;rounded=0;orthogonalLoop=1;jettySize=auto;html=1;entryX=0.5;entryY=0;entryDx=0;entryDy=0;dashed=1;" edge="1" parent="1" source="0i-SYVo2WycHVPdsH7gR-5" target="0i-SYVo2WycHVPdsH7gR-7">
          <mxGeometry relative="1" as="geometry" />
        </mxCell>
        <mxCell id="0i-SYVo2WycHVPdsH7gR-5" value="MongoDB" style="html=1;dropTarget=0;whiteSpace=wrap;" vertex="1" parent="1">
          <mxGeometry x="490" y="80" width="130" height="70" as="geometry" />
        </mxCell>
        <mxCell id="0i-SYVo2WycHVPdsH7gR-6" value="" style="shape=module;jettyWidth=8;jettyHeight=4;" vertex="1" parent="0i-SYVo2WycHVPdsH7gR-5">
          <mxGeometry x="1" width="20" height="20" relative="1" as="geometry">
            <mxPoint x="-27" y="7" as="offset" />
          </mxGeometry>
        </mxCell>
        <mxCell id="0i-SYVo2WycHVPdsH7gR-27" style="edgeStyle=orthogonalEdgeStyle;rounded=0;orthogonalLoop=1;jettySize=auto;html=1;entryX=0.5;entryY=0;entryDx=0;entryDy=0;" edge="1" parent="1" source="0i-SYVo2WycHVPdsH7gR-7" target="0i-SYVo2WycHVPdsH7gR-11">
          <mxGeometry relative="1" as="geometry" />
        </mxCell>
        <mxCell id="0i-SYVo2WycHVPdsH7gR-28" style="edgeStyle=orthogonalEdgeStyle;rounded=0;orthogonalLoop=1;jettySize=auto;html=1;entryX=0.5;entryY=0;entryDx=0;entryDy=0;" edge="1" parent="1" source="0i-SYVo2WycHVPdsH7gR-7" target="0i-SYVo2WycHVPdsH7gR-17">
          <mxGeometry relative="1" as="geometry" />
        </mxCell>
        <mxCell id="0i-SYVo2WycHVPdsH7gR-7" value="Competicao" style="html=1;dropTarget=0;whiteSpace=wrap;" vertex="1" parent="1">
          <mxGeometry x="440" y="220" width="180" height="90" as="geometry" />
        </mxCell>
        <mxCell id="0i-SYVo2WycHVPdsH7gR-8" value="" style="shape=module;jettyWidth=8;jettyHeight=4;" vertex="1" parent="0i-SYVo2WycHVPdsH7gR-7">
          <mxGeometry x="1" width="20" height="20" relative="1" as="geometry">
            <mxPoint x="-27" y="7" as="offset" />
          </mxGeometry>
        </mxCell>
        <mxCell id="0i-SYVo2WycHVPdsH7gR-29" style="edgeStyle=orthogonalEdgeStyle;rounded=0;orthogonalLoop=1;jettySize=auto;html=1;entryX=0.25;entryY=0;entryDx=0;entryDy=0;" edge="1" parent="1" source="0i-SYVo2WycHVPdsH7gR-9" target="0i-SYVo2WycHVPdsH7gR-17">
          <mxGeometry relative="1" as="geometry">
            <Array as="points">
              <mxPoint x="250" y="450" />
              <mxPoint x="515" y="450" />
            </Array>
          </mxGeometry>
        </mxCell>
        <mxCell id="0i-SYVo2WycHVPdsH7gR-9" value="Resultado" style="html=1;dropTarget=0;whiteSpace=wrap;" vertex="1" parent="1">
          <mxGeometry x="160" y="230" width="180" height="90" as="geometry" />
        </mxCell>
        <mxCell id="0i-SYVo2WycHVPdsH7gR-10" value="" style="shape=module;jettyWidth=8;jettyHeight=4;" vertex="1" parent="0i-SYVo2WycHVPdsH7gR-9">
          <mxGeometry x="1" width="20" height="20" relative="1" as="geometry">
            <mxPoint x="-27" y="7" as="offset" />
          </mxGeometry>
        </mxCell>
        <mxCell id="0i-SYVo2WycHVPdsH7gR-11" value="Pais" style="html=1;dropTarget=0;whiteSpace=wrap;" vertex="1" parent="1">
          <mxGeometry x="300" y="340" width="180" height="90" as="geometry" />
        </mxCell>
        <mxCell id="0i-SYVo2WycHVPdsH7gR-12" value="" style="shape=module;jettyWidth=8;jettyHeight=4;" vertex="1" parent="0i-SYVo2WycHVPdsH7gR-11">
          <mxGeometry x="1" width="20" height="20" relative="1" as="geometry">
            <mxPoint x="-27" y="7" as="offset" />
          </mxGeometry>
        </mxCell>
        <mxCell id="0i-SYVo2WycHVPdsH7gR-13" value="" style="shape=folder;fontStyle=1;spacingTop=10;tabWidth=40;tabHeight=14;tabPosition=left;html=1;whiteSpace=wrap;" vertex="1" parent="1">
          <mxGeometry x="210" y="691" width="230" height="170" as="geometry" />
        </mxCell>
        <mxCell id="0i-SYVo2WycHVPdsH7gR-15" value="Pais" style="html=1;dropTarget=0;whiteSpace=wrap;" vertex="1" parent="1">
          <mxGeometry x="260" y="518.5" width="180" height="90" as="geometry" />
        </mxCell>
        <mxCell id="0i-SYVo2WycHVPdsH7gR-16" value="" style="shape=module;jettyWidth=8;jettyHeight=4;" vertex="1" parent="0i-SYVo2WycHVPdsH7gR-15">
          <mxGeometry x="1" width="20" height="20" relative="1" as="geometry">
            <mxPoint x="-27" y="7" as="offset" />
          </mxGeometry>
        </mxCell>
        <mxCell id="0i-SYVo2WycHVPdsH7gR-17" value="Atleta" style="html=1;dropTarget=0;whiteSpace=wrap;" vertex="1" parent="1">
          <mxGeometry x="470" y="531" width="180" height="90" as="geometry" />
        </mxCell>
        <mxCell id="0i-SYVo2WycHVPdsH7gR-18" value="" style="shape=module;jettyWidth=8;jettyHeight=4;" vertex="1" parent="0i-SYVo2WycHVPdsH7gR-17">
          <mxGeometry x="1" width="20" height="20" relative="1" as="geometry">
            <mxPoint x="-27" y="7" as="offset" />
          </mxGeometry>
        </mxCell>
        <mxCell id="0i-SYVo2WycHVPdsH7gR-19" value="Relatorio" style="html=1;dropTarget=0;whiteSpace=wrap;" vertex="1" parent="1">
          <mxGeometry x="235" y="731" width="180" height="90" as="geometry" />
        </mxCell>
        <mxCell id="0i-SYVo2WycHVPdsH7gR-20" value="" style="shape=module;jettyWidth=8;jettyHeight=4;" vertex="1" parent="0i-SYVo2WycHVPdsH7gR-19">
          <mxGeometry x="1" width="20" height="20" relative="1" as="geometry">
            <mxPoint x="-27" y="7" as="offset" />
          </mxGeometry>
        </mxCell>
        <mxCell id="0i-SYVo2WycHVPdsH7gR-21" value="Infra" style="text;html=1;align=center;verticalAlign=middle;resizable=0;points=[];autosize=1;strokeColor=none;fillColor=none;" vertex="1" parent="1">
          <mxGeometry x="480" y="40" width="50" height="30" as="geometry" />
        </mxCell>
        <mxCell id="0i-SYVo2WycHVPdsH7gR-22" value="Competição" style="text;html=1;align=center;verticalAlign=middle;resizable=0;points=[];autosize=1;strokeColor=none;fillColor=none;" vertex="1" parent="1">
          <mxGeometry x="170" y="170" width="90" height="30" as="geometry" />
        </mxCell>
        <mxCell id="0i-SYVo2WycHVPdsH7gR-23" value="Relatorio" style="text;html=1;align=center;verticalAlign=middle;resizable=0;points=[];autosize=1;strokeColor=none;fillColor=none;" vertex="1" parent="1">
          <mxGeometry x="240" y="681" width="70" height="30" as="geometry" />
        </mxCell>
        <mxCell id="0i-SYVo2WycHVPdsH7gR-24" value="&lt;blockquote style=&quot;margin: 0 0 0 40px; border: none; padding: 0px;&quot;&gt;Atleta&lt;/blockquote&gt;" style="text;html=1;align=center;verticalAlign=middle;resizable=0;points=[];autosize=1;strokeColor=none;fillColor=none;" vertex="1" parent="1">
          <mxGeometry x="220" y="460" width="90" height="30" as="geometry" />
        </mxCell>
        <mxCell id="0i-SYVo2WycHVPdsH7gR-25" style="edgeStyle=orthogonalEdgeStyle;rounded=0;orthogonalLoop=1;jettySize=auto;html=1;entryX=0.356;entryY=1.109;entryDx=0;entryDy=0;entryPerimeter=0;dashed=1;" edge="1" parent="1" source="0i-SYVo2WycHVPdsH7gR-19" target="0i-SYVo2WycHVPdsH7gR-15">
          <mxGeometry relative="1" as="geometry" />
        </mxCell>
      </root>
    </mxGraphModel>
  </diagram>
</mxfile>
